0
SECTION
2
HEADER
9
$INSUNITS
70
4
9
$ACADVER
1
AC1014
9
$HANDSEED
5
FFFF
0
ENDSEC
0
SECTION
2
TABLES
0
TABLE
2
VPORT
5
8
100
AcDbSymbolTable
0
ENDTAB
0
TABLE
2
LTYPE
5
5
100
AcDbSymbolTable
0
LTYPE
5
14
100
AcDbSymbolTableRecord
100
AcDbLinetypeTableRecord
2
BYBLOCK
70
0
0
LTYPE
5
15
100
AcDbSymbolTableRecord
100
AcDbLinetypeTableRecord
2
BYLAYER
70
0
0
LTYPE
5
16
100
AcDbSymbolTableRecord
100
AcDbLinetypeTableRecord
2
DASHED
70
0
3
Dashed __ __ __ __ __ __ __ __ __ __ __ __ __ _
72
65
73
2
40
0.75
49
0.5
74
0
49
-0.25
74
0
0
ENDTAB
0
TABLE
2
LAYER
5
2
100
AcDbSymbolTable
70
2
0
LAYER
5
50
100
AcDbSymbolTableRecord
100
AcDbLayerTableRecord
2
0
70
0
62
7
6
CONTINUOUS
0
ENDTAB
0
TABLE
2
STYLE
5
3
100
AcDbSymbolTable
70
1
0
STYLE
5
11
100
AcDbSymbolTableRecord
100
AcDbTextStyleTableRecord
2
STANDARD
70
0
0
ENDTAB
0
TABLE
2
VIEW
5
6
100
AcDbSymbolTable
70
0
0
ENDTAB
0
TABLE
2
UCS
5
7
100
AcDbSymbolTable
70
0
0
ENDTAB
0
TABLE
2
APPID
5
9
100
AcDbSymbolTable
70
2
0
APPID
5
12
100
AcDbSymbolTableRecord
100
AcDbRegAppTableRecord
2
ACAD
70
0
0
ENDTAB
0
TABLE
2
DIMSTYLE
5
A
100
AcDbSymbolTable
70
1
0
ENDTAB
0
TABLE
2
BLOCK_RECORD
5
1
100
AcDbSymbolTable
70
1
0
BLOCK_RECORD
5
1F
100
AcDbSymbolTableRecord
100
AcDbBlockTableRecord
2
*MODEL_SPACE
0
BLOCK_RECORD
5
1B
100
AcDbSymbolTableRecord
100
AcDbBlockTableRecord
2
*PAPER_SPACE
0
ENDTAB
0
ENDSEC
0
SECTION
2
BLOCKS
0
BLOCK
5
20
100
AcDbEntity
100
AcDbBlockBegin
2
*MODEL_SPACE
0
ENDBLK
5
21
100
AcDbEntity
100
AcDbBlockEnd
0
BLOCK
5
1C
100
AcDbEntity
100
AcDbBlockBegin
2
*PAPER_SPACE
0
ENDBLK
5
1D
100
AcDbEntity
100
AcDbBlockEnd
0
ENDSEC
0
SECTION
2
ENTITIES
0
CIRCLE
5
100
100
AcDbEntity
8
0
100
AcDbCircle
10
121.99999999999986
20
-284.5
30
0
40
1.5000000000000036
210
0
220
-0
230
1
0
CIRCLE
5
101
100
AcDbEntity
8
0
100
AcDbCircle
10
-121.9999999999999
20
-284.5
30
0
40
1.5000000000000036
210
0
220
-0
230
1
0
LWPOLYLINE
5
102
100
AcDbEntity
8
0
100
AcDbPolyline
90
4
70
1
43
0.0
10
32.5
20
-246.83333333333337
42
0.99999999999999989
10
32.5
20
-249.83333333333334
10
42.5
20
-249.83333333333337
42
0.99999999999999989
10
42.5
20
-246.83333333333334
0
LWPOLYLINE
5
103
100
AcDbEntity
8
0
100
AcDbPolyline
90
4
70
1
43
0.0
10
32.5
20
-60.166666666666657
42
0.99999999999999989
10
32.5
20
-63.166666666666664
10
42.5
20
-63.166666666666664
42
0.99999999999999989
10
42.5
20
-60.166666666666657
0
CIRCLE
5
104
100
AcDbEntity
8
0
100
AcDbCircle
10
121.9999999999999
20
-25.499999999999986
30
0
40
1.5000000000000036
210
0
220
-0
230
1
0
LWPOLYLINE
5
105
100
AcDbEntity
8
0
100
AcDbPolyline
90
4
70
1
43
0.0
10
-42.5
20
-60.166666666666657
42
0.99999999999999989
10
-42.5
20
-63.166666666666664
10
-32.5
20
-63.166666666666664
42
0.99999999999999989
10
-32.5
20
-60.166666666666657
0
CIRCLE
5
106
100
AcDbEntity
8
0
100
AcDbCircle
10
0
20
-155
30
0
40
7.5
210
0
220
-0
230
1
0
LWPOLYLINE
5
107
100
AcDbEntity
8
0
100
AcDbPolyline
90
4
70
1
43
0.0
10
-42.5
20
-153.5
42
0.99999999999999989
10
-42.5
20
-156.5
10
-32.5
20
-156.5
42
0.99999999999999989
10
-32.5
20
-153.5
0
LWPOLYLINE
5
108
100
AcDbEntity
8
0
100
AcDbPolyline
90
4
70
1
43
0.0
10
-42.5
20
-246.83333333333337
42
0.99999999999999989
10
-42.5
20
-249.83333333333334
10
-32.5
20
-249.83333333333337
42
0.99999999999999989
10
-32.5
20
-246.83333333333334
0
CIRCLE
5
109
100
AcDbEntity
8
0
100
AcDbCircle
10
-121.99999999999991
20
-268.5
30
0
40
1.5000000000000036
210
0
220
-0
230
1
0
CIRCLE
5
110
100
AcDbEntity
8
0
100
AcDbCircle
10
121.99999999999991
20
-268.5
30
0
40
1.5000000000000036
210
0
220
-0
230
1
0
LWPOLYLINE
5
111
100
AcDbEntity
8
0
100
AcDbPolyline
90
4
70
1
43
0.0
10
32.5
20
-153.5
42
0.99999999999999989
10
32.5
20
-156.5
10
42.5
20
-156.5
42
0.99999999999999989
10
42.5
20
-153.5
0
CIRCLE
5
112
100
AcDbEntity
8
0
100
AcDbCircle
10
121.99999999999991
20
-41.499999999999993
30
0
40
1.5000000000000036
210
0
220
-0
230
1
0
CIRCLE
5
113
100
AcDbEntity
8
0
100
AcDbCircle
10
-121.99999999999991
20
-41.5
30
0
40
1.5000000000000036
210
0
220
-0
230
1
0
CIRCLE
5
114
100
AcDbEntity
8
0
100
AcDbCircle
10
-121.9999999999999
20
-25.499999999999975
30
0
40
1.5000000000000036
210
0
220
-0
230
1
0
LWPOLYLINE
5
115
100
AcDbEntity
8
0
100
AcDbPolyline
90
24
70
1
43
0.0
10
-124.49999999999991
20
-15.200000000000031
42
0.41421356237308898
10
-125.99999999999993
20
-16.700000000000035
10
-125.99999999999993
20
-50.500000000000171
42
-0.41421353088092983
10
-127.49999983871845
20
-52.000000000000163
10
-138.30000011542216
20
-52.000000000000135
42
0.41421353983550607
10
-139.79999999999993
20
-53.500000000000128
10
-139.79999999999993
20
-256.49999999999989
42
0.41421355783570468
10
-138.30000002323723
20
-257.99999999999989
10
-127.50000002323723
20
-257.99999999999983
42
-0.41421356691045774
10
-125.99999999999993
20
-259.49999999999983
10
-125.99999999999993
20
-293.29999999999995
42
0.41421356237309853
10
-124.49999999999991
20
-294.79999999999995
10
124.49999999999991
20
-294.79999999999995
42
0.41421356237310542
10
125.99999999999993
20
-293.29999999999995
10
125.99999999999991
20
-259.49999999999983
42
-0.414213557835722
10
127.49999997676262
20
-257.99999999999989
10
138.29999997676262
20
-257.99999999999989
42
0.41421356691047156
10
139.79999999999993
20
-256.49999999999983
10
139.79999999999993
20
-53.500000000000121
42
0.41421358544764236
10
138.29999988182774
20
-52.000000000000156
10
127.49999989759121
20
-52.000000000000171
42
-0.41421354237655539
10
125.99999999999993
20
-50.500000000000156
10
125.99999999999993
20
-16.700000000000035
42
0.41421356237308898
10
124.49999999999991
20
-15.200000000000028
0
ENDSEC
0
SECTION
2
OBJECTS
0
DICTIONARY
5
C
100
AcDbDictionary
3
ACAD_GROUP
350
D
3
ACAD_MLINESTYLE
350
17
0
DICTIONARY
5
D
100
AcDbDictionary
0
DICTIONARY
5
1A
330
C
100
AcDbDictionary
0
DICTIONARY
5
17
100
AcDbDictionary
0
ENDSEC
0
EOF
